<?xml version="1.0" encoding="UTF-8"?>
<svg width="10px" height="10px" viewBox="0 0 10 10" version="1.1" xmlns="http://www.w3.org/2000/svg" xmlns:xlink="http://www.w3.org/1999/xlink">
    <title>yes</title>
    <defs>
        <filter id="filter-1">
            <feColorMatrix in="SourceGraphic" type="matrix" values="0 0 0 0 1.000000 0 0 0 0 0.690196 0 0 0 0 0.000000 0 0 0 1.000000 0"></feColorMatrix>
        </filter>
    </defs>
    <g id="-----------浩维----" stroke="none" stroke-width="1" fill="none" fill-rule="evenodd">
        <g id="yes" transform="translate(-1280.000000, -631.000000)" filter="url(#filter-1)">
            <g transform="translate(1280.000000, 631.000000)">
                <rect id="矩形" fill="#D8D8D8" opacity="0" x="0" y="0" width="10" height="10"></rect>
                <path d="M9.65679861,1.89755844 L9.66488356,1.90564107 L9.66488356,1.90564107 C9.95480568,2.20003487 9.95487329,2.67259599 9.66503543,2.96707274 L4.37633564,8.34041859 C4.15440931,8.56589687 3.82250894,8.61746979 3.55030103,8.49379038 C3.43257764,8.4616299 3.32109732,8.39976178 3.2278809,8.3079825 L3.21976908,8.29987027 L3.21976908,8.29987027 L0.313846258,5.34814749 C0.0228779512,5.05259326 0.0228898936,4.57824661 0.313873083,4.28270703 C0.599062961,3.99305148 1.06506726,3.98943133 1.35472281,4.27462121 L1.36283463,4.28273344 L1.36283463,4.28273344 L3.821341,6.78008722 L8.61987355,1.90579059 C8.90393925,1.6171784 9.36818641,1.61349273 9.65679861,1.89755844 Z" id="形状结合" fill="#FFFFFF"></path>
            </g>
        </g>
    </g>
</svg>